# MagicaVoxel @ Ephtracy

# material
mtllib Wall-0101.mtl
usemtl palette

# normals
vn -1 0 0
vn 1 0 0
vn 0 0 1
vn 0 0 -1
vn 0 -1 0
vn 0 1 0

# texcoords
vt 0.0214844 0.5
vt 0.986328 0.5

# verts
v -32 0 27
v -32 0 -27
v -32 9 32
v -32 9 27
v -32 9 -27
v -32 9 -32
v -32 63 23
v -32 63 18
v -32 63 13
v -32 63 8
v -32 63 3
v -32 63 -2
v -32 63 -7
v -32 63 -12
v -32 63 -17
v -32 63 -22
v -32 64 32
v -32 64 23
v -32 64 18
v -32 64 13
v -32 64 8
v -32 64 3
v -32 64 -2
v -32 64 -7
v -32 64 -12
v -32 64 -17
v -32 64 -22
v -32 64 -32
v 27 9 32
v 27 9 27
v 27 9 -27
v 27 9 -32
v 27 64 32
v 27 64 27
v 27 64 -27
v 27 64 -32
v 28 9 27
v 28 9 22
v 28 9 17
v 28 9 12
v 28 9 7
v 28 9 2
v 28 9 -3
v 28 9 -8
v 28 9 -13
v 28 9 -18
v 28 9 -23
v 28 9 -27
v 28 64 27
v 28 64 22
v 28 64 17
v 28 64 12
v 28 64 7
v 28 64 2
v 28 64 -3
v 28 64 -8
v 28 64 -13
v 28 64 -18
v 28 64 -23
v 28 64 -27
v 31 0 27
v 31 0 -27
v 31 9 27
v 31 9 22
v 31 9 17
v 31 9 12
v 31 9 7
v 31 9 2
v 31 9 -3
v 31 9 -8
v 31 9 -13
v 31 9 -18
v 31 9 -23
v 31 9 -27
v -31 0 27
v -31 0 -27
v -31 9 27
v -31 9 23
v -31 9 18
v -31 9 13
v -31 9 8
v -31 9 3
v -31 9 -2
v -31 9 -7
v -31 9 -12
v -31 9 -17
v -31 9 -22
v -31 9 -27
v -28 9 27
v -28 9 23
v -28 9 18
v -28 9 13
v -28 9 8
v -28 9 3
v -28 9 -2
v -28 9 -7
v -28 9 -12
v -28 9 -17
v -28 9 -22
v -28 9 -27
v -28 64 27
v -28 64 23
v -28 64 18
v -28 64 13
v -28 64 8
v -28 64 3
v -28 64 -2
v -28 64 -7
v -28 64 -12
v -28 64 -17
v -28 64 -22
v -28 64 -27
v -27 9 32
v -27 9 27
v -27 9 -27
v -27 9 -32
v -27 64 32
v -27 64 27
v -27 64 -27
v -27 64 -32
v 32 0 27
v 32 0 -27
v 32 9 32
v 32 9 27
v 32 9 -27
v 32 9 -32
v 32 63 22
v 32 63 17
v 32 63 12
v 32 63 7
v 32 63 2
v 32 63 -3
v 32 63 -8
v 32 63 -13
v 32 63 -18
v 32 63 -23
v 32 64 32
v 32 64 22
v 32 64 17
v 32 64 12
v 32 64 7
v 32 64 2
v 32 64 -3
v 32 64 -8
v 32 64 -13
v 32 64 -18
v 32 64 -23
v 32 64 -32
v -32 9 32
v -32 64 32
v -27 9 32
v -27 64 32
v 27 9 32
v 27 64 32
v 32 9 32
v 32 64 32
v -32 0 27
v -32 9 27
v -31 0 27
v -31 9 27
v 31 0 27
v 31 9 27
v 32 0 27
v 32 9 27
v -28 9 -27
v -28 64 -27
v -27 9 -27
v -27 64 -27
v 27 9 -27
v 27 64 -27
v 28 9 -27
v 28 64 -27
v -28 9 27
v -28 64 27
v -27 9 27
v -27 64 27
v 27 9 27
v 27 64 27
v 28 9 27
v 28 64 27
v -32 0 -27
v -32 9 -27
v -31 0 -27
v -31 9 -27
v 31 0 -27
v 31 9 -27
v 32 0 -27
v 32 9 -27
v -32 9 -32
v -32 64 -32
v -27 9 -32
v -27 64 -32
v 27 9 -32
v 27 64 -32
v 32 9 -32
v 32 64 -32
v -32 0 27
v -31 0 27
v 31 0 27
v 32 0 27
v -32 0 -27
v -31 0 -27
v 31 0 -27
v 32 0 -27
v -32 9 32
v -27 9 32
v 27 9 32
v 32 9 32
v -32 9 27
v -31 9 27
v -28 9 27
v -27 9 27
v 27 9 27
v 28 9 27
v 31 9 27
v 32 9 27
v -31 9 23
v -28 9 23
v 28 9 22
v 31 9 22
v -31 9 18
v -28 9 18
v 28 9 17
v 31 9 17
v -31 9 13
v -28 9 13
v 28 9 12
v 31 9 12
v -31 9 8
v -28 9 8
v 28 9 7
v 31 9 7
v -31 9 3
v -28 9 3
v 28 9 2
v 31 9 2
v -31 9 -2
v -28 9 -2
v 28 9 -3
v 31 9 -3
v -31 9 -7
v -28 9 -7
v 28 9 -8
v 31 9 -8
v -31 9 -12
v -28 9 -12
v 28 9 -13
v 31 9 -13
v -31 9 -17
v -28 9 -17
v 28 9 -18
v 31 9 -18
v -31 9 -22
v -28 9 -22
v 28 9 -23
v 31 9 -23
v -32 9 -27
v -31 9 -27
v -28 9 -27
v -27 9 -27
v 27 9 -27
v 28 9 -27
v 31 9 -27
v 32 9 -27
v -32 9 -32
v -27 9 -32
v 27 9 -32
v 32 9 -32
v -32 64 32
v -27 64 32
v 27 64 32
v 32 64 32
v -28 64 27
v -27 64 27
v 27 64 27
v 28 64 27
v -32 64 23
v -28 64 23
v 28 64 22
v 32 64 22
v -32 64 18
v -28 64 18
v 28 64 17
v 32 64 17
v -32 64 13
v -28 64 13
v 28 64 12
v 32 64 12
v -32 64 8
v -28 64 8
v 28 64 7
v 32 64 7
v -32 64 3
v -28 64 3
v 28 64 2
v 32 64 2
v -32 64 -2
v -28 64 -2
v 28 64 -3
v 32 64 -3
v -32 64 -7
v -28 64 -7
v 28 64 -8
v 32 64 -8
v -32 64 -12
v -28 64 -12
v 28 64 -13
v 32 64 -13
v -32 64 -17
v -28 64 -17
v 28 64 -18
v 32 64 -18
v -32 64 -22
v -28 64 -22
v 28 64 -23
v 32 64 -23
v -28 64 -27
v -27 64 -27
v 27 64 -27
v 28 64 -27
v -32 64 -32
v -27 64 -32
v 27 64 -32
v 32 64 -32

# faces
f 4/2/1 2/2/1 1/2/1
f 5/2/1 2/2/1 4/2/1
f 7/2/1 4/2/1 3/2/1
f 7/2/1 6/2/1 5/2/1
f 7/2/1 5/2/1 4/2/1
f 8/2/1 6/2/1 7/2/1
f 9/2/1 6/2/1 8/2/1
f 10/2/1 6/2/1 9/2/1
f 11/2/1 6/2/1 10/2/1
f 12/2/1 6/2/1 11/2/1
f 13/2/1 6/2/1 12/2/1
f 14/2/1 6/2/1 13/2/1
f 15/2/1 6/2/1 14/2/1
f 16/2/1 6/2/1 15/2/1
f 17/2/1 7/2/1 3/2/1
f 18/1/1 8/1/1 7/1/1
f 18/2/1 7/2/1 17/2/1
f 19/2/1 9/2/1 8/2/1
f 19/1/1 8/1/1 18/1/1
f 20/1/1 10/1/1 9/1/1
f 20/2/1 9/2/1 19/2/1
f 21/2/1 11/2/1 10/2/1
f 21/1/1 10/1/1 20/1/1
f 22/1/1 12/1/1 11/1/1
f 22/2/1 11/2/1 21/2/1
f 23/2/1 13/2/1 12/2/1
f 23/1/1 12/1/1 22/1/1
f 24/1/1 14/1/1 13/1/1
f 24/2/1 13/2/1 23/2/1
f 25/2/1 15/2/1 14/2/1
f 25/1/1 14/1/1 24/1/1
f 26/1/1 16/1/1 15/1/1
f 26/2/1 15/2/1 25/2/1
f 27/2/1 6/2/1 16/2/1
f 27/1/1 16/1/1 26/1/1
f 28/2/1 6/2/1 27/2/1
f 33/2/1 30/2/1 29/2/1
f 34/2/1 30/2/1 33/2/1
f 35/2/1 32/2/1 31/2/1
f 36/2/1 32/2/1 35/2/1
f 49/2/1 38/2/1 37/2/1
f 50/1/1 39/1/1 38/1/1
f 50/2/1 38/2/1 49/2/1
f 51/2/1 40/2/1 39/2/1
f 51/1/1 39/1/1 50/1/1
f 52/1/1 41/1/1 40/1/1
f 52/2/1 40/2/1 51/2/1
f 53/2/1 42/2/1 41/2/1
f 53/1/1 41/1/1 52/1/1
f 54/1/1 43/1/1 42/1/1
f 54/2/1 42/2/1 53/2/1
f 55/2/1 44/2/1 43/2/1
f 55/1/1 43/1/1 54/1/1
f 56/1/1 45/1/1 44/1/1
f 56/2/1 44/2/1 55/2/1
f 57/2/1 46/2/1 45/2/1
f 57/1/1 45/1/1 56/1/1
f 58/1/1 47/1/1 46/1/1
f 58/2/1 46/2/1 57/2/1
f 59/2/1 48/2/1 47/2/1
f 59/1/1 47/1/1 58/1/1
f 60/2/1 48/2/1 59/2/1
f 63/2/1 62/2/1 61/2/1
f 64/2/1 62/2/1 63/2/1
f 65/2/1 62/2/1 64/2/1
f 66/2/1 62/2/1 65/2/1
f 67/2/1 62/2/1 66/2/1
f 68/2/1 62/2/1 67/2/1
f 69/2/1 62/2/1 68/2/1
f 70/2/1 62/2/1 69/2/1
f 71/2/1 62/2/1 70/2/1
f 72/2/1 62/2/1 71/2/1
f 73/2/1 62/2/1 72/2/1
f 74/2/1 62/2/1 73/2/1
f 75/2/2 76/2/2 77/2/2
f 77/2/2 76/2/2 78/2/2
f 78/2/2 76/2/2 79/2/2
f 79/2/2 76/2/2 80/2/2
f 80/2/2 76/2/2 81/2/2
f 81/2/2 76/2/2 82/2/2
f 82/2/2 76/2/2 83/2/2
f 83/2/2 76/2/2 84/2/2
f 84/2/2 76/2/2 85/2/2
f 85/2/2 76/2/2 86/2/2
f 86/2/2 76/2/2 87/2/2
f 87/2/2 76/2/2 88/2/2
f 89/2/2 90/2/2 101/2/2
f 90/1/2 91/1/2 102/1/2
f 101/2/2 90/2/2 102/2/2
f 91/2/2 92/2/2 103/2/2
f 102/1/2 91/1/2 103/1/2
f 92/1/2 93/1/2 104/1/2
f 103/2/2 92/2/2 104/2/2
f 93/2/2 94/2/2 105/2/2
f 104/1/2 93/1/2 105/1/2
f 94/1/2 95/1/2 106/1/2
f 105/2/2 94/2/2 106/2/2
f 95/2/2 96/2/2 107/2/2
f 106/1/2 95/1/2 107/1/2
f 96/1/2 97/1/2 108/1/2
f 107/2/2 96/2/2 108/2/2
f 97/2/2 98/2/2 109/2/2
f 108/1/2 97/1/2 109/1/2
f 98/1/2 99/1/2 110/1/2
f 109/2/2 98/2/2 110/2/2
f 99/2/2 100/2/2 111/2/2
f 110/1/2 99/1/2 111/1/2
f 111/2/2 100/2/2 112/2/2
f 113/2/2 114/2/2 117/2/2
f 117/2/2 114/2/2 118/2/2
f 115/2/2 116/2/2 119/2/2
f 119/2/2 116/2/2 120/2/2
f 121/2/2 122/2/2 124/2/2
f 124/2/2 122/2/2 125/2/2
f 123/2/2 124/2/2 127/2/2
f 125/2/2 126/2/2 127/2/2
f 124/2/2 125/2/2 127/2/2
f 127/2/2 126/2/2 128/2/2
f 128/2/2 126/2/2 129/2/2
f 129/2/2 126/2/2 130/2/2
f 130/2/2 126/2/2 131/2/2
f 131/2/2 126/2/2 132/2/2
f 132/2/2 126/2/2 133/2/2
f 133/2/2 126/2/2 134/2/2
f 134/2/2 126/2/2 135/2/2
f 135/2/2 126/2/2 136/2/2
f 123/2/2 127/2/2 137/2/2
f 127/1/2 128/1/2 138/1/2
f 137/2/2 127/2/2 138/2/2
f 128/2/2 129/2/2 139/2/2
f 138/1/2 128/1/2 139/1/2
f 129/1/2 130/1/2 140/1/2
f 139/2/2 129/2/2 140/2/2
f 130/2/2 131/2/2 141/2/2
f 140/1/2 130/1/2 141/1/2
f 131/1/2 132/1/2 142/1/2
f 141/2/2 131/2/2 142/2/2
f 132/2/2 133/2/2 143/2/2
f 142/1/2 132/1/2 143/1/2
f 133/1/2 134/1/2 144/1/2
f 143/2/2 133/2/2 144/2/2
f 134/2/2 135/2/2 145/2/2
f 144/1/2 134/1/2 145/1/2
f 135/1/2 136/1/2 146/1/2
f 145/2/2 135/2/2 146/2/2
f 136/2/2 126/2/2 147/2/2
f 146/1/2 136/1/2 147/1/2
f 147/2/2 126/2/2 148/2/2
f 151/2/3 150/2/3 149/2/3
f 152/2/3 150/2/3 151/2/3
f 155/2/3 154/2/3 153/2/3
f 156/2/3 154/2/3 155/2/3
f 159/2/3 158/2/3 157/2/3
f 160/2/3 158/2/3 159/2/3
f 163/2/3 162/2/3 161/2/3
f 164/2/3 162/2/3 163/2/3
f 167/2/3 166/2/3 165/2/3
f 168/2/3 166/2/3 167/2/3
f 171/2/3 170/2/3 169/2/3
f 172/2/3 170/2/3 171/2/3
f 173/2/4 174/2/4 175/2/4
f 175/2/4 174/2/4 176/2/4
f 177/2/4 178/2/4 179/2/4
f 179/2/4 178/2/4 180/2/4
f 181/2/4 182/2/4 183/2/4
f 183/2/4 182/2/4 184/2/4
f 185/2/4 186/2/4 187/2/4
f 187/2/4 186/2/4 188/2/4
f 189/2/4 190/2/4 191/2/4
f 191/2/4 190/2/4 192/2/4
f 193/2/4 194/2/4 195/2/4
f 195/2/4 194/2/4 196/2/4
f 201/2/5 198/2/5 197/2/5
f 202/2/5 198/2/5 201/2/5
f 203/2/5 200/2/5 199/2/5
f 204/2/5 200/2/5 203/2/5
f 209/2/5 206/2/5 205/2/5
f 210/2/5 206/2/5 209/2/5
f 211/2/5 206/2/5 210/2/5
f 212/2/5 206/2/5 211/2/5
f 213/2/5 208/2/5 207/2/5
f 214/2/5 208/2/5 213/2/5
f 215/2/5 208/2/5 214/2/5
f 216/2/5 208/2/5 215/2/5
f 217/2/5 211/2/5 210/2/5
f 218/2/5 211/2/5 217/2/5
f 219/2/5 215/2/5 214/2/5
f 220/2/5 215/2/5 219/2/5
f 221/1/5 218/1/5 217/1/5
f 222/1/5 218/1/5 221/1/5
f 223/1/5 220/1/5 219/1/5
f 224/1/5 220/1/5 223/1/5
f 225/2/5 222/2/5 221/2/5
f 226/2/5 222/2/5 225/2/5
f 227/2/5 224/2/5 223/2/5
f 228/2/5 224/2/5 227/2/5
f 229/1/5 226/1/5 225/1/5
f 230/1/5 226/1/5 229/1/5
f 231/1/5 228/1/5 227/1/5
f 232/1/5 228/1/5 231/1/5
f 233/2/5 230/2/5 229/2/5
f 234/2/5 230/2/5 233/2/5
f 235/2/5 232/2/5 231/2/5
f 236/2/5 232/2/5 235/2/5
f 237/1/5 234/1/5 233/1/5
f 238/1/5 234/1/5 237/1/5
f 239/1/5 236/1/5 235/1/5
f 240/1/5 236/1/5 239/1/5
f 241/2/5 238/2/5 237/2/5
f 242/2/5 238/2/5 241/2/5
f 243/2/5 240/2/5 239/2/5
f 244/2/5 240/2/5 243/2/5
f 245/1/5 242/1/5 241/1/5
f 246/1/5 242/1/5 245/1/5
f 247/1/5 244/1/5 243/1/5
f 248/1/5 244/1/5 247/1/5
f 249/2/5 246/2/5 245/2/5
f 250/2/5 246/2/5 249/2/5
f 251/2/5 248/2/5 247/2/5
f 252/2/5 248/2/5 251/2/5
f 253/1/5 250/1/5 249/1/5
f 254/1/5 250/1/5 253/1/5
f 255/1/5 252/1/5 251/1/5
f 256/1/5 252/1/5 255/1/5
f 258/2/5 254/2/5 253/2/5
f 259/2/5 254/2/5 258/2/5
f 262/2/5 256/2/5 255/2/5
f 263/2/5 256/2/5 262/2/5
f 265/2/5 259/2/5 258/2/5
f 265/2/5 258/2/5 257/2/5
f 265/2/5 260/2/5 259/2/5
f 266/2/5 260/2/5 265/2/5
f 267/2/5 263/2/5 262/2/5
f 267/2/5 262/2/5 261/2/5
f 267/2/5 264/2/5 263/2/5
f 268/2/5 264/2/5 267/2/5
f 269/2/6 270/2/6 273/2/6
f 273/2/6 270/2/6 274/2/6
f 271/2/6 272/2/6 275/2/6
f 275/2/6 272/2/6 276/2/6
f 269/2/6 273/2/6 277/2/6
f 277/2/6 273/2/6 278/2/6
f 276/2/6 272/2/6 279/2/6
f 279/2/6 272/2/6 280/2/6
f 277/1/6 278/1/6 281/1/6
f 281/1/6 278/1/6 282/1/6
f 279/1/6 280/1/6 283/1/6
f 283/1/6 280/1/6 284/1/6
f 281/2/6 282/2/6 285/2/6
f 285/2/6 282/2/6 286/2/6
f 283/2/6 284/2/6 287/2/6
f 287/2/6 284/2/6 288/2/6
f 285/1/6 286/1/6 289/1/6
f 289/1/6 286/1/6 290/1/6
f 287/1/6 288/1/6 291/1/6
f 291/1/6 288/1/6 292/1/6
f 289/2/6 290/2/6 293/2/6
f 293/2/6 290/2/6 294/2/6
f 291/2/6 292/2/6 295/2/6
f 295/2/6 292/2/6 296/2/6
f 293/1/6 294/1/6 297/1/6
f 297/1/6 294/1/6 298/1/6
f 295/1/6 296/1/6 299/1/6
f 299/1/6 296/1/6 300/1/6
f 297/2/6 298/2/6 301/2/6
f 301/2/6 298/2/6 302/2/6
f 299/2/6 300/2/6 303/2/6
f 303/2/6 300/2/6 304/2/6
f 301/1/6 302/1/6 305/1/6
f 305/1/6 302/1/6 306/1/6
f 303/1/6 304/1/6 307/1/6
f 307/1/6 304/1/6 308/1/6
f 305/2/6 306/2/6 309/2/6
f 309/2/6 306/2/6 310/2/6
f 307/2/6 308/2/6 311/2/6
f 311/2/6 308/2/6 312/2/6
f 309/1/6 310/1/6 313/1/6
f 313/1/6 310/1/6 314/1/6
f 311/1/6 312/1/6 315/1/6
f 315/1/6 312/1/6 316/1/6
f 313/2/6 314/2/6 317/2/6
f 315/2/6 316/2/6 320/2/6
f 317/2/6 318/2/6 321/2/6
f 313/2/6 317/2/6 321/2/6
f 321/2/6 318/2/6 322/2/6
f 319/2/6 320/2/6 323/2/6
f 320/2/6 316/2/6 324/2/6
f 323/2/6 320/2/6 324/2/6
