# MagicaVoxel @ Ephtracy

# material
mtllib Wall-1011.mtl
usemtl palette

# normals
vn -1 0 0
vn 1 0 0
vn 0 0 1
vn 0 0 -1
vn 0 -1 0
vn 0 1 0

# texcoords
vt 0.0214844 0.5
vt 0.986328 0.5

# verts
v -32 9 32
v -32 9 27
v -32 9 -27
v -32 9 -32
v -32 64 32
v -32 64 27
v -32 64 -27
v -32 64 -32
v -27 0 32
v -27 0 31
v -27 0 -31
v -27 0 -32
v -27 9 32
v -27 9 31
v -27 9 -31
v -27 9 -32
v 27 9 28
v 27 9 27
v 27 9 -27
v 27 9 -28
v 27 64 28
v 27 64 27
v 27 64 -27
v 27 64 -28
v 28 9 27
v 28 9 22
v 28 9 17
v 28 9 12
v 28 9 7
v 28 9 2
v 28 9 -3
v 28 9 -8
v 28 9 -13
v 28 9 -18
v 28 9 -23
v 28 9 -27
v 28 64 27
v 28 64 22
v 28 64 17
v 28 64 12
v 28 64 7
v 28 64 2
v 28 64 -3
v 28 64 -8
v 28 64 -13
v 28 64 -18
v 28 64 -23
v 28 64 -27
v 31 0 27
v 31 0 -27
v 31 9 27
v 31 9 22
v 31 9 17
v 31 9 12
v 31 9 7
v 31 9 2
v 31 9 -3
v 31 9 -8
v 31 9 -13
v 31 9 -18
v 31 9 -23
v 31 9 -27
v -27 9 28
v -27 9 27
v -27 9 -27
v -27 9 -28
v -27 64 28
v -27 64 27
v -27 64 -27
v -27 64 -28
v 27 0 32
v 27 0 31
v 27 0 -31
v 27 0 -32
v 27 9 32
v 27 9 31
v 27 9 -31
v 27 9 -32
v 32 0 27
v 32 0 -27
v 32 9 32
v 32 9 27
v 32 9 -27
v 32 9 -32
v 32 63 22
v 32 63 17
v 32 63 12
v 32 63 7
v 32 63 2
v 32 63 -3
v 32 63 -8
v 32 63 -13
v 32 63 -18
v 32 63 -23
v 32 64 32
v 32 64 22
v 32 64 17
v 32 64 12
v 32 64 7
v 32 64 2
v 32 64 -3
v 32 64 -8
v 32 64 -13
v 32 64 -18
v 32 64 -23
v 32 64 -32
v -32 9 32
v -32 64 32
v -27 0 32
v -27 9 32
v -22 63 32
v -22 64 32
v -17 63 32
v -17 64 32
v -12 63 32
v -12 64 32
v -7 63 32
v -7 64 32
v -2 63 32
v -2 64 32
v 3 63 32
v 3 64 32
v 8 63 32
v 8 64 32
v 13 63 32
v 13 64 32
v 18 63 32
v 18 64 32
v 23 63 32
v 23 64 32
v 27 0 32
v 27 9 32
v 32 9 32
v 32 64 32
v 31 0 27
v 31 9 27
v 32 0 27
v 32 9 27
v -32 9 -27
v -32 64 -27
v -27 9 -27
v -27 64 -27
v 27 9 -27
v 27 64 -27
v 28 9 -27
v 28 64 -27
v -27 9 -28
v -27 64 -28
v -23 9 -28
v -23 64 -28
v -18 9 -28
v -18 64 -28
v -13 9 -28
v -13 64 -28
v -8 9 -28
v -8 64 -28
v -3 9 -28
v -3 64 -28
v 2 9 -28
v 2 64 -28
v 7 9 -28
v 7 64 -28
v 12 9 -28
v 12 64 -28
v 17 9 -28
v 17 64 -28
v 22 9 -28
v 22 64 -28
v 27 9 -28
v 27 64 -28
v -27 0 -31
v -27 9 -31
v -23 9 -31
v -18 9 -31
v -13 9 -31
v -8 9 -31
v -3 9 -31
v 2 9 -31
v 7 9 -31
v 12 9 -31
v 17 9 -31
v 22 9 -31
v 27 0 -31
v 27 9 -31
v -27 0 31
v -27 9 31
v -22 9 31
v -17 9 31
v -12 9 31
v -7 9 31
v -2 9 31
v 3 9 31
v 8 9 31
v 13 9 31
v 18 9 31
v 23 9 31
v 27 0 31
v 27 9 31
v -27 9 28
v -27 64 28
v -22 9 28
v -22 64 28
v -17 9 28
v -17 64 28
v -12 9 28
v -12 64 28
v -7 9 28
v -7 64 28
v -2 9 28
v -2 64 28
v 3 9 28
v 3 64 28
v 8 9 28
v 8 64 28
v 13 9 28
v 13 64 28
v 18 9 28
v 18 64 28
v 23 9 28
v 23 64 28
v 27 9 28
v 27 64 28
v -32 9 27
v -32 64 27
v -27 9 27
v -27 64 27
v 27 9 27
v 27 64 27
v 28 9 27
v 28 64 27
v 31 0 -27
v 31 9 -27
v 32 0 -27
v 32 9 -27
v -32 9 -32
v -32 64 -32
v -27 0 -32
v -27 9 -32
v -23 63 -32
v -23 64 -32
v -18 63 -32
v -18 64 -32
v -13 63 -32
v -13 64 -32
v -8 63 -32
v -8 64 -32
v -3 63 -32
v -3 64 -32
v 2 63 -32
v 2 64 -32
v 7 63 -32
v 7 64 -32
v 12 63 -32
v 12 64 -32
v 17 63 -32
v 17 64 -32
v 22 63 -32
v 22 64 -32
v 27 0 -32
v 27 9 -32
v 32 9 -32
v 32 64 -32
v -27 0 32
v 27 0 32
v -27 0 31
v 27 0 31
v 31 0 27
v 32 0 27
v 31 0 -27
v 32 0 -27
v -27 0 -31
v 27 0 -31
v -27 0 -32
v 27 0 -32
v -32 9 32
v -27 9 32
v 27 9 32
v 32 9 32
v -27 9 31
v -22 9 31
v -17 9 31
v -12 9 31
v -7 9 31
v -2 9 31
v 3 9 31
v 8 9 31
v 13 9 31
v 18 9 31
v 23 9 31
v 27 9 31
v -27 9 28
v -22 9 28
v -17 9 28
v -12 9 28
v -7 9 28
v -2 9 28
v 3 9 28
v 8 9 28
v 13 9 28
v 18 9 28
v 23 9 28
v 27 9 28
v -32 9 27
v -27 9 27
v 27 9 27
v 28 9 27
v 31 9 27
v 32 9 27
v 28 9 22
v 31 9 22
v 28 9 17
v 31 9 17
v 28 9 12
v 31 9 12
v 28 9 7
v 31 9 7
v 28 9 2
v 31 9 2
v 28 9 -3
v 31 9 -3
v 28 9 -8
v 31 9 -8
v 28 9 -13
v 31 9 -13
v 28 9 -18
v 31 9 -18
v 28 9 -23
v 31 9 -23
v -32 9 -27
v -27 9 -27
v 27 9 -27
v 28 9 -27
v 31 9 -27
v 32 9 -27
v -27 9 -28
v -23 9 -28
v -18 9 -28
v -13 9 -28
v -8 9 -28
v -3 9 -28
v 2 9 -28
v 7 9 -28
v 12 9 -28
v 17 9 -28
v 22 9 -28
v 27 9 -28
v -27 9 -31
v -23 9 -31
v -18 9 -31
v -13 9 -31
v -8 9 -31
v -3 9 -31
v 2 9 -31
v 7 9 -31
v 12 9 -31
v 17 9 -31
v 22 9 -31
v 27 9 -31
v -32 9 -32
v -27 9 -32
v 27 9 -32
v 32 9 -32
v -32 64 32
v -22 64 32
v -17 64 32
v -12 64 32
v -7 64 32
v -2 64 32
v 3 64 32
v 8 64 32
v 13 64 32
v 18 64 32
v 23 64 32
v 32 64 32
v -27 64 28
v -22 64 28
v -17 64 28
v -12 64 28
v -7 64 28
v -2 64 28
v 3 64 28
v 8 64 28
v 13 64 28
v 18 64 28
v 23 64 28
v 27 64 28
v -32 64 27
v -27 64 27
v 27 64 27
v 28 64 27
v 28 64 22
v 32 64 22
v 28 64 17
v 32 64 17
v 28 64 12
v 32 64 12
v 28 64 7
v 32 64 7
v 28 64 2
v 32 64 2
v 28 64 -3
v 32 64 -3
v 28 64 -8
v 32 64 -8
v 28 64 -13
v 32 64 -13
v 28 64 -18
v 32 64 -18
v 28 64 -23
v 32 64 -23
v -32 64 -27
v -27 64 -27
v 27 64 -27
v 28 64 -27
v -27 64 -28
v -23 64 -28
v -18 64 -28
v -13 64 -28
v -8 64 -28
v -3 64 -28
v 2 64 -28
v 7 64 -28
v 12 64 -28
v 17 64 -28
v 22 64 -28
v 27 64 -28
v -32 64 -32
v -23 64 -32
v -18 64 -32
v -13 64 -32
v -8 64 -32
v -3 64 -32
v 2 64 -32
v 7 64 -32
v 12 64 -32
v 17 64 -32
v 22 64 -32
v 32 64 -32

# faces
f 5/2/1 2/2/1 1/2/1
f 6/2/1 2/2/1 5/2/1
f 7/2/1 4/2/1 3/2/1
f 8/2/1 4/2/1 7/2/1
f 13/2/1 10/2/1 9/2/1
f 14/2/1 10/2/1 13/2/1
f 15/2/1 12/2/1 11/2/1
f 16/2/1 12/2/1 15/2/1
f 21/2/1 18/2/1 17/2/1
f 22/2/1 18/2/1 21/2/1
f 23/2/1 20/2/1 19/2/1
f 24/2/1 20/2/1 23/2/1
f 37/2/1 26/2/1 25/2/1
f 38/1/1 27/1/1 26/1/1
f 38/2/1 26/2/1 37/2/1
f 39/2/1 28/2/1 27/2/1
f 39/1/1 27/1/1 38/1/1
f 40/1/1 29/1/1 28/1/1
f 40/2/1 28/2/1 39/2/1
f 41/2/1 30/2/1 29/2/1
f 41/1/1 29/1/1 40/1/1
f 42/1/1 31/1/1 30/1/1
f 42/2/1 30/2/1 41/2/1
f 43/2/1 32/2/1 31/2/1
f 43/1/1 31/1/1 42/1/1
f 44/1/1 33/1/1 32/1/1
f 44/2/1 32/2/1 43/2/1
f 45/2/1 34/2/1 33/2/1
f 45/1/1 33/1/1 44/1/1
f 46/1/1 35/1/1 34/1/1
f 46/2/1 34/2/1 45/2/1
f 47/2/1 36/2/1 35/2/1
f 47/1/1 35/1/1 46/1/1
f 48/2/1 36/2/1 47/2/1
f 51/2/1 50/2/1 49/2/1
f 52/2/1 50/2/1 51/2/1
f 53/2/1 50/2/1 52/2/1
f 54/2/1 50/2/1 53/2/1
f 55/2/1 50/2/1 54/2/1
f 56/2/1 50/2/1 55/2/1
f 57/2/1 50/2/1 56/2/1
f 58/2/1 50/2/1 57/2/1
f 59/2/1 50/2/1 58/2/1
f 60/2/1 50/2/1 59/2/1
f 61/2/1 50/2/1 60/2/1
f 62/2/1 50/2/1 61/2/1
f 63/2/2 64/2/2 67/2/2
f 67/2/2 64/2/2 68/2/2
f 65/2/2 66/2/2 69/2/2
f 69/2/2 66/2/2 70/2/2
f 71/2/2 72/2/2 75/2/2
f 75/2/2 72/2/2 76/2/2
f 73/2/2 74/2/2 77/2/2
f 77/2/2 74/2/2 78/2/2
f 79/2/2 80/2/2 82/2/2
f 82/2/2 80/2/2 83/2/2
f 81/2/2 82/2/2 85/2/2
f 83/2/2 84/2/2 85/2/2
f 82/2/2 83/2/2 85/2/2
f 85/2/2 84/2/2 86/2/2
f 86/2/2 84/2/2 87/2/2
f 87/2/2 84/2/2 88/2/2
f 88/2/2 84/2/2 89/2/2
f 89/2/2 84/2/2 90/2/2
f 90/2/2 84/2/2 91/2/2
f 91/2/2 84/2/2 92/2/2
f 92/2/2 84/2/2 93/2/2
f 93/2/2 84/2/2 94/2/2
f 81/2/2 85/2/2 95/2/2
f 85/1/2 86/1/2 96/1/2
f 95/2/2 85/2/2 96/2/2
f 86/2/2 87/2/2 97/2/2
f 96/1/2 86/1/2 97/1/2
f 87/1/2 88/1/2 98/1/2
f 97/2/2 87/2/2 98/2/2
f 88/2/2 89/2/2 99/2/2
f 98/1/2 88/1/2 99/1/2
f 89/1/2 90/1/2 100/1/2
f 99/2/2 89/2/2 100/2/2
f 90/2/2 91/2/2 101/2/2
f 100/1/2 90/1/2 101/1/2
f 91/1/2 92/1/2 102/1/2
f 101/2/2 91/2/2 102/2/2
f 92/2/2 93/2/2 103/2/2
f 102/1/2 92/1/2 103/1/2
f 93/1/2 94/1/2 104/1/2
f 103/2/2 93/2/2 104/2/2
f 94/2/2 84/2/2 105/2/2
f 104/1/2 94/1/2 105/1/2
f 105/2/2 84/2/2 106/2/2
f 110/2/3 108/2/3 107/2/3
f 111/2/3 108/2/3 110/2/3
f 111/2/3 110/2/3 109/2/3
f 112/2/3 108/2/3 111/2/3
f 113/2/3 111/2/3 109/2/3
f 113/1/3 112/1/3 111/1/3
f 114/1/3 112/1/3 113/1/3
f 115/2/3 113/2/3 109/2/3
f 115/2/3 114/2/3 113/2/3
f 116/2/3 114/2/3 115/2/3
f 117/2/3 115/2/3 109/2/3
f 117/1/3 116/1/3 115/1/3
f 118/1/3 116/1/3 117/1/3
f 119/2/3 117/2/3 109/2/3
f 119/2/3 118/2/3 117/2/3
f 120/2/3 118/2/3 119/2/3
f 121/2/3 119/2/3 109/2/3
f 121/1/3 120/1/3 119/1/3
f 122/1/3 120/1/3 121/1/3
f 123/2/3 121/2/3 109/2/3
f 123/2/3 122/2/3 121/2/3
f 124/2/3 122/2/3 123/2/3
f 125/2/3 123/2/3 109/2/3
f 125/1/3 124/1/3 123/1/3
f 126/1/3 124/1/3 125/1/3
f 127/2/3 125/2/3 109/2/3
f 127/2/3 126/2/3 125/2/3
f 128/2/3 126/2/3 127/2/3
f 129/2/3 127/2/3 109/2/3
f 129/1/3 128/1/3 127/1/3
f 130/1/3 128/1/3 129/1/3
f 131/2/3 129/2/3 109/2/3
f 131/2/3 130/2/3 129/2/3
f 132/2/3 130/2/3 131/2/3
f 133/2/3 130/2/3 132/2/3
f 134/2/3 130/2/3 133/2/3
f 137/2/3 136/2/3 135/2/3
f 138/2/3 136/2/3 137/2/3
f 141/2/3 140/2/3 139/2/3
f 142/2/3 140/2/3 141/2/3
f 145/2/3 144/2/3 143/2/3
f 146/2/3 144/2/3 145/2/3
f 149/2/3 148/2/3 147/2/3
f 150/2/3 148/2/3 149/2/3
f 151/1/3 150/1/3 149/1/3
f 152/1/3 150/1/3 151/1/3
f 153/2/3 152/2/3 151/2/3
f 154/2/3 152/2/3 153/2/3
f 155/1/3 154/1/3 153/1/3
f 156/1/3 154/1/3 155/1/3
f 157/2/3 156/2/3 155/2/3
f 158/2/3 156/2/3 157/2/3
f 159/1/3 158/1/3 157/1/3
f 160/1/3 158/1/3 159/1/3
f 161/2/3 160/2/3 159/2/3
f 162/2/3 160/2/3 161/2/3
f 163/1/3 162/1/3 161/1/3
f 164/1/3 162/1/3 163/1/3
f 165/2/3 164/2/3 163/2/3
f 166/2/3 164/2/3 165/2/3
f 167/1/3 166/1/3 165/1/3
f 168/1/3 166/1/3 167/1/3
f 169/2/3 168/2/3 167/2/3
f 170/2/3 168/2/3 169/2/3
f 173/2/3 172/2/3 171/2/3
f 174/2/3 173/2/3 171/2/3
f 175/2/3 174/2/3 171/2/3
f 176/2/3 175/2/3 171/2/3
f 177/2/3 176/2/3 171/2/3
f 178/2/3 177/2/3 171/2/3
f 179/2/3 178/2/3 171/2/3
f 180/2/3 179/2/3 171/2/3
f 181/2/3 180/2/3 171/2/3
f 182/2/3 181/2/3 171/2/3
f 183/2/3 182/2/3 171/2/3
f 184/2/3 182/2/3 183/2/3
f 185/2/4 186/2/4 187/2/4
f 185/2/4 187/2/4 188/2/4
f 185/2/4 188/2/4 189/2/4
f 185/2/4 189/2/4 190/2/4
f 185/2/4 190/2/4 191/2/4
f 185/2/4 191/2/4 192/2/4
f 185/2/4 192/2/4 193/2/4
f 185/2/4 193/2/4 194/2/4
f 185/2/4 194/2/4 195/2/4
f 185/2/4 195/2/4 196/2/4
f 185/2/4 196/2/4 197/2/4
f 197/2/4 196/2/4 198/2/4
f 199/2/4 200/2/4 201/2/4
f 201/2/4 200/2/4 202/2/4
f 201/1/4 202/1/4 203/1/4
f 203/1/4 202/1/4 204/1/4
f 203/2/4 204/2/4 205/2/4
f 205/2/4 204/2/4 206/2/4
f 205/1/4 206/1/4 207/1/4
f 207/1/4 206/1/4 208/1/4
f 207/2/4 208/2/4 209/2/4
f 209/2/4 208/2/4 210/2/4
f 209/1/4 210/1/4 211/1/4
f 211/1/4 210/1/4 212/1/4
f 211/2/4 212/2/4 213/2/4
f 213/2/4 212/2/4 214/2/4
f 213/1/4 214/1/4 215/1/4
f 215/1/4 214/1/4 216/1/4
f 215/2/4 216/2/4 217/2/4
f 217/2/4 216/2/4 218/2/4
f 217/1/4 218/1/4 219/1/4
f 219/1/4 218/1/4 220/1/4
f 219/2/4 220/2/4 221/2/4
f 221/2/4 220/2/4 222/2/4
f 223/2/4 224/2/4 225/2/4
f 225/2/4 224/2/4 226/2/4
f 227/2/4 228/2/4 229/2/4
f 229/2/4 228/2/4 230/2/4
f 231/2/4 232/2/4 233/2/4
f 233/2/4 232/2/4 234/2/4
f 235/2/4 236/2/4 238/2/4
f 238/2/4 236/2/4 239/2/4
f 237/2/4 238/2/4 239/2/4
f 239/2/4 236/2/4 240/2/4
f 237/2/4 239/2/4 241/2/4
f 239/1/4 240/1/4 241/1/4
f 241/1/4 240/1/4 242/1/4
f 237/2/4 241/2/4 243/2/4
f 241/2/4 242/2/4 243/2/4
f 243/2/4 242/2/4 244/2/4
f 237/2/4 243/2/4 245/2/4
f 243/1/4 244/1/4 245/1/4
f 245/1/4 244/1/4 246/1/4
f 237/2/4 245/2/4 247/2/4
f 245/2/4 246/2/4 247/2/4
f 247/2/4 246/2/4 248/2/4
f 237/2/4 247/2/4 249/2/4
f 247/1/4 248/1/4 249/1/4
f 249/1/4 248/1/4 250/1/4
f 237/2/4 249/2/4 251/2/4
f 249/2/4 250/2/4 251/2/4
f 251/2/4 250/2/4 252/2/4
f 237/2/4 251/2/4 253/2/4
f 251/1/4 252/1/4 253/1/4
f 253/1/4 252/1/4 254/1/4
f 237/2/4 253/2/4 255/2/4
f 253/2/4 254/2/4 255/2/4
f 255/2/4 254/2/4 256/2/4
f 237/2/4 255/2/4 257/2/4
f 255/1/4 256/1/4 257/1/4
f 257/1/4 256/1/4 258/1/4
f 237/2/4 257/2/4 259/2/4
f 257/2/4 258/2/4 259/2/4
f 259/2/4 258/2/4 260/2/4
f 260/2/4 258/2/4 261/2/4
f 261/2/4 258/2/4 262/2/4
f 265/2/5 264/2/5 263/2/5
f 266/2/5 264/2/5 265/2/5
f 269/2/5 268/2/5 267/2/5
f 270/2/5 268/2/5 269/2/5
f 273/2/5 272/2/5 271/2/5
f 274/2/5 272/2/5 273/2/5
f 279/2/5 276/2/5 275/2/5
f 290/2/5 278/2/5 277/2/5
f 291/2/5 279/2/5 275/2/5
f 291/2/5 280/2/5 279/2/5
f 292/1/5 281/1/5 280/1/5
f 292/2/5 280/2/5 291/2/5
f 293/2/5 282/2/5 281/2/5
f 293/1/5 281/1/5 292/1/5
f 294/1/5 283/1/5 282/1/5
f 294/2/5 282/2/5 293/2/5
f 295/2/5 284/2/5 283/2/5
f 295/1/5 283/1/5 294/1/5
f 296/1/5 285/1/5 284/1/5
f 296/2/5 284/2/5 295/2/5
f 297/2/5 286/2/5 285/2/5
f 297/1/5 285/1/5 296/1/5
f 298/1/5 287/1/5 286/1/5
f 298/2/5 286/2/5 297/2/5
f 299/2/5 288/2/5 287/2/5
f 299/1/5 287/1/5 298/1/5
f 300/1/5 289/1/5 288/1/5
f 300/2/5 288/2/5 299/2/5
f 301/2/5 290/2/5 289/2/5
f 301/1/5 289/1/5 300/1/5
f 302/2/5 278/2/5 290/2/5
f 302/2/5 290/2/5 301/2/5
f 303/2/5 291/2/5 275/2/5
f 304/2/5 291/2/5 303/2/5
f 305/2/5 278/2/5 302/2/5
f 306/2/5 278/2/5 305/2/5
f 307/2/5 278/2/5 306/2/5
f 308/2/5 278/2/5 307/2/5
f 309/2/5 307/2/5 306/2/5
f 310/2/5 307/2/5 309/2/5
f 311/1/5 310/1/5 309/1/5
f 312/1/5 310/1/5 311/1/5
f 313/2/5 312/2/5 311/2/5
f 314/2/5 312/2/5 313/2/5
f 315/1/5 314/1/5 313/1/5
f 316/1/5 314/1/5 315/1/5
f 317/2/5 316/2/5 315/2/5
f 318/2/5 316/2/5 317/2/5
f 319/1/5 318/1/5 317/1/5
f 320/1/5 318/1/5 319/1/5
f 321/2/5 320/2/5 319/2/5
f 322/2/5 320/2/5 321/2/5
f 323/1/5 322/1/5 321/1/5
f 324/1/5 322/1/5 323/1/5
f 325/2/5 324/2/5 323/2/5
f 326/2/5 324/2/5 325/2/5
f 327/1/5 326/1/5 325/1/5
f 328/1/5 326/1/5 327/1/5
f 332/2/5 328/2/5 327/2/5
f 333/2/5 328/2/5 332/2/5
f 335/2/5 330/2/5 329/2/5
f 346/2/5 333/2/5 332/2/5
f 346/2/5 332/2/5 331/2/5
f 346/2/5 334/2/5 333/2/5
f 347/2/5 335/2/5 329/2/5
f 347/2/5 336/2/5 335/2/5
f 348/1/5 337/1/5 336/1/5
f 348/2/5 336/2/5 347/2/5
f 349/2/5 338/2/5 337/2/5
f 349/1/5 337/1/5 348/1/5
f 350/1/5 339/1/5 338/1/5
f 350/2/5 338/2/5 349/2/5
f 351/2/5 340/2/5 339/2/5
f 351/1/5 339/1/5 350/1/5
f 352/1/5 341/1/5 340/1/5
f 352/2/5 340/2/5 351/2/5
f 353/2/5 342/2/5 341/2/5
f 353/1/5 341/1/5 352/1/5
f 354/1/5 343/1/5 342/1/5
f 354/2/5 342/2/5 353/2/5
f 355/2/5 344/2/5 343/2/5
f 355/1/5 343/1/5 354/1/5
f 356/1/5 345/1/5 344/1/5
f 356/2/5 344/2/5 355/2/5
f 357/2/5 346/2/5 345/2/5
f 357/1/5 345/1/5 356/1/5
f 358/2/5 334/2/5 346/2/5
f 358/2/5 346/2/5 357/2/5
f 359/2/5 347/2/5 329/2/5
f 360/2/5 347/2/5 359/2/5
f 361/2/5 334/2/5 358/2/5
f 362/2/5 334/2/5 361/2/5
f 363/2/6 364/2/6 375/2/6
f 364/1/6 365/1/6 376/1/6
f 375/2/6 364/2/6 376/2/6
f 365/2/6 366/2/6 377/2/6
f 376/1/6 365/1/6 377/1/6
f 366/1/6 367/1/6 378/1/6
f 377/2/6 366/2/6 378/2/6
f 367/2/6 368/2/6 379/2/6
f 378/1/6 367/1/6 379/1/6
f 368/1/6 369/1/6 380/1/6
f 379/2/6 368/2/6 380/2/6
f 369/2/6 370/2/6 381/2/6
f 380/1/6 369/1/6 381/1/6
f 370/1/6 371/1/6 382/1/6
f 381/2/6 370/2/6 382/2/6
f 371/2/6 372/2/6 383/2/6
f 382/1/6 371/1/6 383/1/6
f 372/1/6 373/1/6 384/1/6
f 383/2/6 372/2/6 384/2/6
f 373/2/6 374/2/6 385/2/6
f 384/1/6 373/1/6 385/1/6
f 385/2/6 374/2/6 386/2/6
f 363/2/6 375/2/6 387/2/6
f 387/2/6 375/2/6 388/2/6
f 386/2/6 374/2/6 389/2/6
f 389/2/6 374/2/6 390/2/6
f 390/2/6 374/2/6 391/2/6
f 391/2/6 374/2/6 392/2/6
f 391/1/6 392/1/6 393/1/6
f 393/1/6 392/1/6 394/1/6
f 393/2/6 394/2/6 395/2/6
f 395/2/6 394/2/6 396/2/6
f 395/1/6 396/1/6 397/1/6
f 397/1/6 396/1/6 398/1/6
f 397/2/6 398/2/6 399/2/6
f 399/2/6 398/2/6 400/2/6
f 399/1/6 400/1/6 401/1/6
f 401/1/6 400/1/6 402/1/6
f 401/2/6 402/2/6 403/2/6
f 403/2/6 402/2/6 404/2/6
f 403/1/6 404/1/6 405/1/6
f 405/1/6 404/1/6 406/1/6
f 405/2/6 406/2/6 407/2/6
f 407/2/6 406/2/6 408/2/6
f 407/1/6 408/1/6 409/1/6
f 409/1/6 408/1/6 410/1/6
f 409/2/6 410/2/6 414/2/6
f 411/2/6 412/2/6 415/2/6
f 413/2/6 414/2/6 426/2/6
f 411/2/6 415/2/6 427/2/6
f 415/2/6 416/2/6 427/2/6
f 416/1/6 417/1/6 428/1/6
f 427/2/6 416/2/6 428/2/6
f 417/2/6 418/2/6 429/2/6
f 428/1/6 417/1/6 429/1/6
f 418/1/6 419/1/6 430/1/6
f 429/2/6 418/2/6 430/2/6
f 419/2/6 420/2/6 431/2/6
f 430/1/6 419/1/6 431/1/6
f 420/1/6 421/1/6 432/1/6
f 431/2/6 420/2/6 432/2/6
f 421/2/6 422/2/6 433/2/6
f 432/1/6 421/1/6 433/1/6
f 422/1/6 423/1/6 434/1/6
f 433/2/6 422/2/6 434/2/6
f 423/2/6 424/2/6 435/2/6
f 434/1/6 423/1/6 435/1/6
f 424/1/6 425/1/6 436/1/6
f 435/2/6 424/2/6 436/2/6
f 425/2/6 426/2/6 437/2/6
f 436/1/6 425/1/6 437/1/6
f 414/2/6 410/2/6 438/2/6
f 437/2/6 426/2/6 438/2/6
f 426/2/6 414/2/6 438/2/6
