# MagicaVoxel @ Ephtracy

# material
mtllib Wall-0001.mtl
usemtl palette

# normals
vn -1 0 0
vn 1 0 0
vn 0 0 1
vn 0 0 -1
vn 0 -1 0
vn 0 1 0

# texcoords
vt 0.0214844 0.5
vt 0.986328 0.5

# verts
v -32 0 32
v -32 0 31
v -32 0 -31
v -32 0 -32
v -32 1 32
v -32 1 31
v -32 1 -31
v -32 1 -32
v 27 9 32
v 27 9 27
v 27 9 -27
v 27 9 -32
v 27 64 32
v 27 64 27
v 27 64 -27
v 27 64 -32
v 28 9 27
v 28 9 22
v 28 9 17
v 28 9 12
v 28 9 7
v 28 9 2
v 28 9 -3
v 28 9 -8
v 28 9 -13
v 28 9 -18
v 28 9 -23
v 28 9 -27
v 28 64 27
v 28 64 22
v 28 64 17
v 28 64 12
v 28 64 7
v 28 64 2
v 28 64 -3
v 28 64 -8
v 28 64 -13
v 28 64 -18
v 28 64 -23
v 28 64 -27
v 31 0 27
v 31 0 -27
v 31 9 27
v 31 9 22
v 31 9 17
v 31 9 12
v 31 9 7
v 31 9 2
v 31 9 -3
v 31 9 -8
v 31 9 -13
v 31 9 -18
v 31 9 -23
v 31 9 -27
v -31 0 32
v -31 0 31
v -31 0 -31
v -31 0 -32
v -31 1 32
v -31 1 31
v -31 1 -31
v -31 1 -32
v 32 0 27
v 32 0 -27
v 32 9 32
v 32 9 27
v 32 9 -27
v 32 9 -32
v 32 63 22
v 32 63 17
v 32 63 12
v 32 63 7
v 32 63 2
v 32 63 -3
v 32 63 -8
v 32 63 -13
v 32 63 -18
v 32 63 -23
v 32 64 32
v 32 64 22
v 32 64 17
v 32 64 12
v 32 64 7
v 32 64 2
v 32 64 -3
v 32 64 -8
v 32 64 -13
v 32 64 -18
v 32 64 -23
v 32 64 -32
v -32 0 32
v -32 1 32
v -31 0 32
v -31 1 32
v 27 9 32
v 27 64 32
v 32 9 32
v 32 64 32
v 31 0 27
v 31 9 27
v 32 0 27
v 32 9 27
v 27 9 -27
v 27 64 -27
v 28 9 -27
v 28 64 -27
v -32 0 -31
v -32 1 -31
v -31 0 -31
v -31 1 -31
v -32 0 31
v -32 1 31
v -31 0 31
v -31 1 31
v 27 9 27
v 27 64 27
v 28 9 27
v 28 64 27
v 31 0 -27
v 31 9 -27
v 32 0 -27
v 32 9 -27
v -32 0 -32
v -32 1 -32
v -31 0 -32
v -31 1 -32
v 27 9 -32
v 27 64 -32
v 32 9 -32
v 32 64 -32
v -32 0 32
v -31 0 32
v -32 0 31
v -31 0 31
v 31 0 27
v 32 0 27
v 31 0 -27
v 32 0 -27
v -32 0 -31
v -31 0 -31
v -32 0 -32
v -31 0 -32
v 27 9 32
v 32 9 32
v 27 9 27
v 28 9 27
v 31 9 27
v 32 9 27
v 28 9 22
v 31 9 22
v 28 9 17
v 31 9 17
v 28 9 12
v 31 9 12
v 28 9 7
v 31 9 7
v 28 9 2
v 31 9 2
v 28 9 -3
v 31 9 -3
v 28 9 -8
v 31 9 -8
v 28 9 -13
v 31 9 -13
v 28 9 -18
v 31 9 -18
v 28 9 -23
v 31 9 -23
v 27 9 -27
v 28 9 -27
v 31 9 -27
v 32 9 -27
v 27 9 -32
v 32 9 -32
v -32 1 32
v -31 1 32
v -32 1 31
v -31 1 31
v -32 1 -31
v -31 1 -31
v -32 1 -32
v -31 1 -32
v 27 64 32
v 32 64 32
v 27 64 27
v 28 64 27
v 28 64 22
v 32 64 22
v 28 64 17
v 32 64 17
v 28 64 12
v 32 64 12
v 28 64 7
v 32 64 7
v 28 64 2
v 32 64 2
v 28 64 -3
v 32 64 -3
v 28 64 -8
v 32 64 -8
v 28 64 -13
v 32 64 -13
v 28 64 -18
v 32 64 -18
v 28 64 -23
v 32 64 -23
v 27 64 -27
v 28 64 -27
v 27 64 -32
v 32 64 -32

# faces
f 5/2/1 2/2/1 1/2/1
f 6/2/1 2/2/1 5/2/1
f 7/2/1 4/2/1 3/2/1
f 8/2/1 4/2/1 7/2/1
f 13/2/1 10/2/1 9/2/1
f 14/2/1 10/2/1 13/2/1
f 15/2/1 12/2/1 11/2/1
f 16/2/1 12/2/1 15/2/1
f 29/2/1 18/2/1 17/2/1
f 30/1/1 19/1/1 18/1/1
f 30/2/1 18/2/1 29/2/1
f 31/2/1 20/2/1 19/2/1
f 31/1/1 19/1/1 30/1/1
f 32/1/1 21/1/1 20/1/1
f 32/2/1 20/2/1 31/2/1
f 33/2/1 22/2/1 21/2/1
f 33/1/1 21/1/1 32/1/1
f 34/1/1 23/1/1 22/1/1
f 34/2/1 22/2/1 33/2/1
f 35/2/1 24/2/1 23/2/1
f 35/1/1 23/1/1 34/1/1
f 36/1/1 25/1/1 24/1/1
f 36/2/1 24/2/1 35/2/1
f 37/2/1 26/2/1 25/2/1
f 37/1/1 25/1/1 36/1/1
f 38/1/1 27/1/1 26/1/1
f 38/2/1 26/2/1 37/2/1
f 39/2/1 28/2/1 27/2/1
f 39/1/1 27/1/1 38/1/1
f 40/2/1 28/2/1 39/2/1
f 43/2/1 42/2/1 41/2/1
f 44/2/1 42/2/1 43/2/1
f 45/2/1 42/2/1 44/2/1
f 46/2/1 42/2/1 45/2/1
f 47/2/1 42/2/1 46/2/1
f 48/2/1 42/2/1 47/2/1
f 49/2/1 42/2/1 48/2/1
f 50/2/1 42/2/1 49/2/1
f 51/2/1 42/2/1 50/2/1
f 52/2/1 42/2/1 51/2/1
f 53/2/1 42/2/1 52/2/1
f 54/2/1 42/2/1 53/2/1
f 55/2/2 56/2/2 59/2/2
f 59/2/2 56/2/2 60/2/2
f 57/2/2 58/2/2 61/2/2
f 61/2/2 58/2/2 62/2/2
f 63/2/2 64/2/2 66/2/2
f 66/2/2 64/2/2 67/2/2
f 65/2/2 66/2/2 69/2/2
f 67/2/2 68/2/2 69/2/2
f 66/2/2 67/2/2 69/2/2
f 69/2/2 68/2/2 70/2/2
f 70/2/2 68/2/2 71/2/2
f 71/2/2 68/2/2 72/2/2
f 72/2/2 68/2/2 73/2/2
f 73/2/2 68/2/2 74/2/2
f 74/2/2 68/2/2 75/2/2
f 75/2/2 68/2/2 76/2/2
f 76/2/2 68/2/2 77/2/2
f 77/2/2 68/2/2 78/2/2
f 65/2/2 69/2/2 79/2/2
f 69/1/2 70/1/2 80/1/2
f 79/2/2 69/2/2 80/2/2
f 70/2/2 71/2/2 81/2/2
f 80/1/2 70/1/2 81/1/2
f 71/1/2 72/1/2 82/1/2
f 81/2/2 71/2/2 82/2/2
f 72/2/2 73/2/2 83/2/2
f 82/1/2 72/1/2 83/1/2
f 73/1/2 74/1/2 84/1/2
f 83/2/2 73/2/2 84/2/2
f 74/2/2 75/2/2 85/2/2
f 84/1/2 74/1/2 85/1/2
f 75/1/2 76/1/2 86/1/2
f 85/2/2 75/2/2 86/2/2
f 76/2/2 77/2/2 87/2/2
f 86/1/2 76/1/2 87/1/2
f 77/1/2 78/1/2 88/1/2
f 87/2/2 77/2/2 88/2/2
f 78/2/2 68/2/2 89/2/2
f 88/1/2 78/1/2 89/1/2
f 89/2/2 68/2/2 90/2/2
f 93/2/3 92/2/3 91/2/3
f 94/2/3 92/2/3 93/2/3
f 97/2/3 96/2/3 95/2/3
f 98/2/3 96/2/3 97/2/3
f 101/2/3 100/2/3 99/2/3
f 102/2/3 100/2/3 101/2/3
f 105/2/3 104/2/3 103/2/3
f 106/2/3 104/2/3 105/2/3
f 109/2/3 108/2/3 107/2/3
f 110/2/3 108/2/3 109/2/3
f 111/2/4 112/2/4 113/2/4
f 113/2/4 112/2/4 114/2/4
f 115/2/4 116/2/4 117/2/4
f 117/2/4 116/2/4 118/2/4
f 119/2/4 120/2/4 121/2/4
f 121/2/4 120/2/4 122/2/4
f 123/2/4 124/2/4 125/2/4
f 125/2/4 124/2/4 126/2/4
f 127/2/4 128/2/4 129/2/4
f 129/2/4 128/2/4 130/2/4
f 133/2/5 132/2/5 131/2/5
f 134/2/5 132/2/5 133/2/5
f 137/2/5 136/2/5 135/2/5
f 138/2/5 136/2/5 137/2/5
f 141/2/5 140/2/5 139/2/5
f 142/2/5 140/2/5 141/2/5
f 145/2/5 144/2/5 143/2/5
f 146/2/5 144/2/5 145/2/5
f 147/2/5 144/2/5 146/2/5
f 148/2/5 144/2/5 147/2/5
f 149/2/5 147/2/5 146/2/5
f 150/2/5 147/2/5 149/2/5
f 151/1/5 150/1/5 149/1/5
f 152/1/5 150/1/5 151/1/5
f 153/2/5 152/2/5 151/2/5
f 154/2/5 152/2/5 153/2/5
f 155/1/5 154/1/5 153/1/5
f 156/1/5 154/1/5 155/1/5
f 157/2/5 156/2/5 155/2/5
f 158/2/5 156/2/5 157/2/5
f 159/1/5 158/1/5 157/1/5
f 160/1/5 158/1/5 159/1/5
f 161/2/5 160/2/5 159/2/5
f 162/2/5 160/2/5 161/2/5
f 163/1/5 162/1/5 161/1/5
f 164/1/5 162/1/5 163/1/5
f 165/2/5 164/2/5 163/2/5
f 166/2/5 164/2/5 165/2/5
f 167/1/5 166/1/5 165/1/5
f 168/1/5 166/1/5 167/1/5
f 170/2/5 168/2/5 167/2/5
f 171/2/5 168/2/5 170/2/5
f 173/2/5 171/2/5 170/2/5
f 173/2/5 172/2/5 171/2/5
f 173/2/5 170/2/5 169/2/5
f 174/2/5 172/2/5 173/2/5
f 175/2/6 176/2/6 177/2/6
f 177/2/6 176/2/6 178/2/6
f 179/2/6 180/2/6 181/2/6
f 181/2/6 180/2/6 182/2/6
f 183/2/6 184/2/6 185/2/6
f 185/2/6 184/2/6 186/2/6
f 186/2/6 184/2/6 187/2/6
f 187/2/6 184/2/6 188/2/6
f 187/1/6 188/1/6 189/1/6
f 189/1/6 188/1/6 190/1/6
f 189/2/6 190/2/6 191/2/6
f 191/2/6 190/2/6 192/2/6
f 191/1/6 192/1/6 193/1/6
f 193/1/6 192/1/6 194/1/6
f 193/2/6 194/2/6 195/2/6
f 195/2/6 194/2/6 196/2/6
f 195/1/6 196/1/6 197/1/6
f 197/1/6 196/1/6 198/1/6
f 197/2/6 198/2/6 199/2/6
f 199/2/6 198/2/6 200/2/6
f 199/1/6 200/1/6 201/1/6
f 201/1/6 200/1/6 202/1/6
f 201/2/6 202/2/6 203/2/6
f 203/2/6 202/2/6 204/2/6
f 203/1/6 204/1/6 205/1/6
f 205/1/6 204/1/6 206/1/6
f 205/2/6 206/2/6 208/2/6
f 207/2/6 208/2/6 209/2/6
f 208/2/6 206/2/6 210/2/6
f 209/2/6 208/2/6 210/2/6
